# xmcd
#
# Track frame offsets: 
#        150
#        18062
#        35092
#        58462
#        80882
#        103900
#        124180
#        143215
#        165292
#        189312
#        230010
#
# Disc length: 3070 seconds
#
# Revision: 2
# Processed by: cddbd v1.5.2PL0 Copyright (c) Steve Scherf et al.
# Submitted via: ExactAudioCopyFreeDBPlugin 1.0
#
DISCID=980bfc0b
DTITLE=山弦 - Island made
DYEAR=2004
DGENRE=New Age
TTITLE0=rise and shine
TTITLE1=go.go.jp
TTITLE2=島そだち - island made
TTITLE3=月星 - tsukihoshi
TTITLE4=tell me something
TTITLE5=Key Largo
TTITLE6=sanba de gumbo
TTITLE7=キジムナー - kijimuna oceanway
TTITLE8=little hope
TTITLE9=花鳥風月 - beauties of nature
TTITLE10=Hidden Track
EXTD=YEAR: 2004
EXTT0=
EXTT1=
EXTT2=
EXTT3=
EXTT4=
EXTT5=
EXTT6=
EXTT7=
EXTT8=
EXTT9=
EXTT10=
PLAYORDER=
